<?xml version="1.0" encoding="UTF-8"?>
<svg xmlns="http://www.w3.org/2000/svg" xmlns:xlink="http://www.w3.org/1999/xlink" viewBox="0 0 106.19 38.66">
  <defs>
    <style>
      .cls-1 {
        fill: #fff;
      }

      .cls-2 {
        mask: url(#mask);
      }

      .cls-3 {
        fill: #b759ff;
      }

      .cls-4 {
        fill: #7e4efc;
      }

      .cls-5, .cls-6, .cls-7 {
        isolation: isolate;
      }

      .cls-6 {
        fill: #7300ff;
        opacity: .5;
      }

      .cls-6, .cls-7 {
        fill-rule: evenodd;
      }

      .cls-7 {
        fill: #bb94ff;
        mix-blend-mode: hard-light;
      }
    </style>
    <mask id="mask" x="0" y="0" width="106.19" height="38.65" maskUnits="userSpaceOnUse">
      <g id="s">
        <path class="cls-1" d="M58.77,38.65c10.67,0,19.32-8.65,19.32-19.32S69.44,0,58.77,0s-19.32,8.65-19.32,19.33,8.65,19.32,19.32,19.32Z"/>
      </g>
    </mask>
  </defs>
  <g class="cls-5">
    <g id="Layer_2" data-name="Layer 2">
      <g id="Layer_1-2" data-name="Layer 1">
        <g>
          <path class="cls-3" d="M58.77,38.65c10.67,0,19.32-8.65,19.32-19.32S69.45,0,58.77,0s-19.32,8.65-19.32,19.32,8.65,19.32,19.32,19.32Z"/>
          <g class="cls-2">
            <path class="cls-4" d="M64.12,4.39l-7.87-.73c-2.45-.23-4.61,1.58-4.84,4.02,0,0,0,0,0,0h0c-.23,2.45,1.57,4.62,4.02,4.85l7.87.73c2.45.23,4.61-1.58,4.84-4.02,0,0,0,0,0,0h0c.23-2.45-1.57-4.62-4.02-4.85ZM102.15,29.63l-45.08-4.16c-2.45-.23-4.61,1.57-4.84,4.02h0c-.23,2.45,1.58,4.62,4.02,4.85,0,0,0,0,0,0l45.08,4.16c2.45.23,4.61-1.57,4.84-4.02h0c.23-2.45-1.58-4.62-4.02-4.85,0,0,0,0,0,0ZM49.94,14L4.86,9.85C2.41,9.62.25,11.42.02,13.87c0,0,0,0,0,0h0c-.23,2.45,1.58,4.62,4.02,4.85,0,0,0,0,0,0l45.08,4.16c2.45.23,4.61-1.57,4.84-4.02h0c.23-2.45-1.58-4.62-4.02-4.85,0,0,0,0,0,0h0Z"/>
          </g>
          <path class="cls-6" d="M77.99,17.24c-.76-6.96-5.13-12.66-11.04-15.43,2.15,2.8,3.49,6.15,3.87,9.66,1.16,10.61-6.51,20.16-17.13,21.31-3.65.4-7.17-.25-10.27-1.7,3.97,5.18,10.48,8.22,17.44,7.47,10.61-1.15,18.28-10.7,17.13-21.31h0Z"/>
          <path class="cls-7" d="M53.33,4.74c-5.04,0-9.13,4.09-9.13,9.13.07,5.04,4.22,9.07,9.26,8.99,4.94-.07,8.92-4.06,8.99-8.99,0-5.04-4.09-9.13-9.13-9.13h0Z"/>
        </g>
      </g>
    </g>
  </g>
</svg>