<?xml version="1.0" encoding="UTF-8"?>
<svg xmlns="http://www.w3.org/2000/svg" viewBox="0 0 27.03 27.03">
  <defs>
    <style>
      .cls-1 {
        fill: #00adb3;
      }

      .cls-1, .cls-2, .cls-3, .cls-4 {
        fill-rule: evenodd;
      }

      .cls-2 {
        fill: #6031de;
        opacity: .5;
      }

      .cls-2, .cls-5, .cls-4 {
        isolation: isolate;
      }

      .cls-3 {
        fill: #00c28e;
      }

      .cls-4 {
        fill: #bb94ff;
        mix-blend-mode: hard-light;
      }
    </style>
  </defs>
  <g class="cls-5">
    <g id="Layer_2" data-name="Layer 2">
      <g id="Layer_1-2" data-name="Layer 1">
        <g>
          <path class="cls-3" d="M23.07,3.96C17.8-1.32,9.24-1.32,3.96,3.96c-5.27,5.28-5.27,13.83,0,19.11,5.28,5.28,13.83,5.28,19.12,0,5.27-5.28,5.27-13.83,0-19.11Z"/>
          <path class="cls-1" d="M20.02,7.01c-3.59-3.59-9.41-3.59-12.99,0-3.59,3.59-3.59,9.41,0,13,3.59,3.59,9.41,3.59,12.99,0,3.59-3.59,3.59-9.41,0-13Z"/>
          <path class="cls-3" d="M16.58,10.44c-1.69-1.69-4.43-1.7-6.13,0,0,0,0,0,0,0-1.69,1.69-1.7,4.43,0,6.13,0,0,0,0,0,0,1.69,1.69,4.43,1.7,6.13,0,0,0,0,0,0,0,1.69-1.69,1.7-4.43,0-6.13,0,0,0,0,0,0Z"/>
          <path class="cls-2" d="M26.95,12.04c-.53-4.87-3.59-8.85-7.72-10.79,1.5,1.96,2.44,4.3,2.71,6.76.81,7.42-4.55,14.09-11.97,14.9-2.46.27-4.94-.14-7.18-1.19,2.87,3.75,7.5,5.73,12.2,5.22,7.42-.81,12.78-7.48,11.97-14.9h0Z"/>
          <path class="cls-4" d="M9.71,3.31c-3.53,0-6.39,2.86-6.39,6.39s2.86,6.39,6.39,6.39c3.53,0,6.39-2.86,6.39-6.39s-2.86-6.39-6.39-6.39Z"/>
        </g>
      </g>
    </g>
  </g>
</svg>