<?xml version="1.0" encoding="UTF-8"?>
<svg xmlns="http://www.w3.org/2000/svg" xmlns:xlink="http://www.w3.org/1999/xlink" viewBox="0 0 39.55 38.83">
  <defs>
    <style>
      .cls-1 {
        fill: #fff;
      }

      .cls-2 {
        mask: url(#mask);
      }

      .cls-3 {
        fill: #e62e43;
      }

      .cls-3, .cls-4, .cls-5, .cls-6 {
        fill-rule: evenodd;
      }

      .cls-7, .cls-4, .cls-6 {
        isolation: isolate;
      }

      .cls-4 {
        fill: #ff9500;
        mix-blend-mode: hard-light;
      }

      .cls-5 {
        fill: #ff501c;
      }

      .cls-6 {
        fill: #7300ff;
        opacity: .5;
      }
    </style>
    <mask id="mask" x="0" y="0" width="39.55" height="38.82" maskUnits="userSpaceOnUse">
      <g id="q">
        <path class="cls-1" d="M31.38,10.8c-6.41-6.41-16.8-6.41-23.21,0-6.41,6.41-6.41,16.8,0,23.22,6.41,6.41,16.8,6.41,23.21,0,6.41-6.41,6.41-16.8,0-23.22Z"/>
      </g>
    </mask>
  </defs>
  <g class="cls-7">
    <g id="Layer_2" data-name="Layer 2">
      <g id="Layer_1-2" data-name="Layer 1">
        <path class="cls-5" d="M31.37,10.79c-6.41-6.41-16.8-6.41-23.22,0s-6.41,16.8,0,23.22c6.41,6.41,16.8,6.41,23.22,0,6.41-6.41,6.41-16.8,0-23.22Z"/>
        <g class="cls-2">
          <path class="cls-3" d="M14.21,16.51c-3.25-3.25-8.52-3.25-11.78,0-3.25,3.25-3.25,8.52,0,11.78,3.25,3.25,8.52,3.25,11.78,0,3.25-3.25,3.25-8.52,0-11.78ZM37.11,2.44c-3.25-3.25-8.52-3.25-11.78,0-3.25,3.25-3.25,8.52,0,11.78,3.25,3.25,8.52,3.25,11.78,0,3.25-3.25,3.25-8.52,0-11.78ZM28.68,23.89c-1.88-1.92-4.96-1.95-6.88-.07-1.92,1.88-1.95,4.96-.07,6.88.02.03.05.05.07.07,1.92,1.88,5,1.84,6.88-.08,1.85-1.89,1.85-4.91,0-6.8Z"/>
        </g>
        <path class="cls-6" d="M36.08,20.63c-.64-5.92-4.36-10.75-9.38-13.1,1.83,2.38,2.96,5.22,3.28,8.21.98,9.01-5.53,17.11-14.54,18.1-2.98.33-6-.17-8.72-1.44,3.38,4.4,8.9,6.98,14.81,6.34,9.01-.98,15.53-9.08,14.54-18.1h0s0,0,0,0Z"/>
        <path class="cls-4" d="M15.14,10.01c-4.28,0-7.76,3.47-7.76,7.76h0c0,4.29,3.47,7.76,7.76,7.76h0c4.28,0,7.76-3.47,7.76-7.76h0c0-4.29-3.47-7.76-7.75-7.76h0Z"/>
      </g>
    </g>
  </g>
</svg>