<?xml version="1.0" encoding="UTF-8"?>
<svg xmlns="http://www.w3.org/2000/svg" xmlns:xlink="http://www.w3.org/1999/xlink" viewBox="0 0 59.05 59.01">
  <defs>
    <style>
      .cls-1 {
        fill: #94dfff;
        mix-blend-mode: hard-light;
      }

      .cls-1, .cls-2, .cls-3 {
        isolation: isolate;
      }

      .cls-1, .cls-3 {
        opacity: .25;
      }

      .cls-1, .cls-3, .cls-4 {
        fill-rule: evenodd;
      }

      .cls-3 {
        fill: #7300ff;
      }

      .cls-5 {
        fill: #00cc8b;
      }

      .cls-6 {
        fill: #a8e5ff;
      }

      .cls-4 {
        fill: url(#linear-gradient);
      }
    </style>
    <linearGradient id="linear-gradient" x1="240" y1="618.84" x2="299" y2="618.84" gradientTransform="translate(-240 648.34) scale(1 -1)" gradientUnits="userSpaceOnUse">
      <stop offset="0" stop-color="#05f"/>
      <stop offset="1" stop-color="#05f"/>
    </linearGradient>
  </defs>
  <g class="cls-2">
    <g id="Layer_2" data-name="Layer 2">
      <g id="Layer_1-2" data-name="Layer 1">
        <g>
          <path class="cls-4" d="M50.36,8.64c-11.52-11.52-30.2-11.52-41.72,0-11.52,11.52-11.52,30.2,0,41.72,11.52,11.52,30.2,11.52,41.72,0,11.52-11.52,11.52-30.2,0-41.72Z"/>
          <path class="cls-5" d="M30.92,52.38c0-1.63-1.32-2.95-2.95-2.95h-3.03c-.65,0-1.18-.53-1.18-1.18s.51-1.16,1.14-1.18h1.67c2.72,0,4.92-2.2,4.92-4.92s-2.2-4.92-4.92-4.92h-11.92c-2.72,0-4.92,2.21-4.92,4.92,0,2.71,2.2,4.91,4.92,4.92h3.66c.64.02,1.14.54,1.14,1.18,0,.65-.53,1.17-1.18,1.18H7.74c2.16,2.36,4.69,4.36,7.49,5.91h12.74c1.63,0,2.95-1.32,2.95-2.95h0s0,0,0,0Z"/>
          <path class="cls-6" d="M46.94,14.69c1.39,0,2.51-1.12,2.51-2.51h0c0-1.39-1.12-2.52-2.51-2.52h-6.1c-1.39,0-2.51,1.12-2.51,2.51h0c0,1.39,1.12,2.52,2.51,2.52,0,0,0,0,0,0,0,0,6.09,0,6.09,0ZM34.26,41.38c1.84.06,3.37-1.37,3.44-3.21s-1.37-3.37-3.21-3.44c-.08,0-.15,0-.23,0h-8.05c-1.83,0-3.32,1.49-3.32,3.32,0,0,0,0,0,0,0,1.83,1.48,3.32,3.31,3.32,0,0,0,0,.01,0h8.05Z"/>
          <path class="cls-5" d="M39.72,4.29h3.79c.34,0,.67-.07.97-.2-2.25-1.32-4.65-2.34-7.17-3.03-.07.23-.1.46-.1.72,0,1.39,1.12,2.51,2.51,2.51,0,0,0,0,0,0h0Z"/>
          <path class="cls-6" d="M6.33,31.69c0-1.39-1.12-2.51-2.51-2.51H.02v.34c0,1.6.13,3.17.38,4.69h3.43c1.39,0,2.51-1.12,2.51-2.51h0s0,0,0,0Z"/>
          <path class="cls-5" d="M46.02,38.87c0,2.24,1.81,4.05,4.05,4.05h5.72c1.3-2.55,2.22-5.28,2.74-8.1h-8.46c-2.24,0-4.05,1.81-4.05,4.05h0ZM6.33,16.68c.64.01,1.15.53,1.15,1.17,0,.64-.53,1.18-1.18,1.18h-1.12c-1.88.05-3.37,1.59-3.37,3.47,0,1.89,1.55,3.46,3.46,3.46h8.39c1.91,0,3.46-1.55,3.46-3.46s-1.53-3.44-3.43-3.46h-.71c-.65,0-1.18-.53-1.18-1.18s.51-1.16,1.15-1.17h6.3c2.24,0,4.05-1.81,4.05-4.05,0-2.24-1.81-4.05-4.05-4.05h-10.53c-2.27,2.26-4.16,4.87-5.6,7.73.53.25,1.11.38,1.7.37h1.5,0s0,0,0,0ZM43.14,26.84c1.92,0,3.48-1.55,3.48-3.47h0c0-1.93-1.56-3.48-3.48-3.49h-8.44c-1.92,0-3.48,1.56-3.48,3.48,0,1.92,1.56,3.48,3.48,3.48h8.44Z"/>
          <path class="cls-6" d="M57.92,21.55h-16.79c-3.04,0-5.5,2.46-5.5,5.5,0,3.04,2.46,5.5,5.5,5.5h17.73c.1-1,.15-2.01.15-3.03,0-2.76-.38-5.43-1.09-7.97h0Z"/>
          <path class="cls-3" d="M58.87,26.32c-1.16-10.63-7.82-19.32-16.85-23.55,3.28,4.28,5.32,9.38,5.9,14.75,1.77,16.19-9.94,30.76-26.14,32.52-5.36.59-10.78-.31-15.67-2.59,6.06,7.9,15.99,12.54,26.62,11.39,16.2-1.76,27.9-16.32,26.14-32.52,0,0,0,0,0,0Z"/>
          <path class="cls-1" d="M21.24,7.24c-7.69,0-13.93,6.24-13.93,13.94s6.24,13.93,13.93,13.93,13.93-6.24,13.93-13.93-6.24-13.94-13.93-13.94ZM38.92,6.26c-2.45,0-4.44,1.98-4.44,4.44,0,2.45,1.98,4.44,4.44,4.44h0c2.45,0,4.44-1.99,4.44-4.44,0-2.45-1.99-4.43-4.44-4.44Z"/>
        </g>
      </g>
    </g>
  </g>
</svg>