<?xml version="1.0" encoding="UTF-8"?>
<svg id="Layer_2" data-name="Layer 2" xmlns="http://www.w3.org/2000/svg" viewBox="0 0 81.7 141.62">
  <defs>
    <style>
      .cls-1 {
        fill: #00b38f;
      }

      .cls-2 {
        fill: #0080b3;
      }

      .cls-3 {
        fill: #008bc2;
      }

      .cls-4 {
        fill: #00cc8b;
      }

      .cls-5 {
        fill: #00adb3;
      }

      .cls-6 {
        fill: #0098b3;
      }
    </style>
  </defs>
  <g id="Layer_1-2" data-name="Layer 1">
    <g>
      <path class="cls-1" d="M40.85,8.63c4.09,0,7.4,3.32,7.4,7.4v62.7h-14.8V16.03c0-4.09,3.31-7.4,7.4-7.4h0,0Z"/>
      <path class="cls-4" d="M38.34,78.72h-4.9V20.66c.05-1.35,1.18-2.41,2.54-2.36,1.29.05,2.32,1.08,2.36,2.36v58.06h0Z"/>
      <path class="cls-6" d="M40.84,0c4.09,0,7.4,3.32,7.4,7.4v10.89h-14.8V7.4C33.45,3.32,36.76,0,40.85,0h0,0Z"/>
      <path class="cls-1" d="M49.92,38.37h-18.15c-2.28,0-4.12,1.84-4.12,4.12v95.01c0,2.28,1.84,4.12,4.12,4.12h18.15c2.28,0,4.12-1.84,4.12-4.12V42.49c0-2.28-1.84-4.12-4.12-4.12Z"/>
      <path class="cls-4" d="M31.77,38.37h4.12v99.13c0,2.27-1.85,4.12-4.12,4.12-2.27,0-4.12-1.85-4.12-4.12V42.49c0-2.27,1.85-4.12,4.12-4.12h0Z"/>
      <path class="cls-1" d="M35.29,54.95c3.3,0,5.98-2.67,5.98-5.97,0-3.3-2.67-5.98-5.97-5.98h0c-3.3,0-5.97,2.68-5.97,5.98,0,3.3,2.67,5.97,5.97,5.97Z"/>
      <path class="cls-6" d="M56.89,60.54H24.8c-2.28,0-4.12,1.84-4.12,4.12v72.84c0,2.28,1.84,4.12,4.12,4.12h32.1c2.28,0,4.12-1.84,4.12-4.12v-72.84c0-2.28-1.84-4.12-4.12-4.12Z"/>
      <path class="cls-5" d="M24.8,60.54h6.98v81.08h-11.1v-76.96c0-2.27,1.85-4.12,4.12-4.12h0ZM49.41,81.73c4.51,0,8.16-3.66,8.16-8.16s-3.66-8.16-8.16-8.16-8.16,3.66-8.16,8.16,3.66,8.16,8.16,8.16h0Z"/>
      <path class="cls-2" d="M68.57,127.27v-32.81c0-5.49-4.45-9.93-9.93-9.93H19.58c-3.56,0-6.45,2.89-6.46,6.45h0v36.28C5.76,127.92,0,134.09,0,141.62h81.69c0-7.52-5.76-13.7-13.12-14.35h0Z"/>
      <path class="cls-2" d="M68.57,127.27v-38.62c0-2.28-1.84-4.12-4.12-4.12H17.25c-2.28,0-4.12,1.84-4.12,4.12v38.62C5.77,127.92,0,134.1,0,141.62h81.69c0-7.52-5.77-13.7-13.12-14.35h0Z"/>
      <path class="cls-3" d="M0,141.62c0-7.52,5.76-13.7,13.12-14.35h55.45c7.36.65,13.12,6.83,13.12,14.35H0Z"/>
      <path class="cls-6" d="M17.24,84.53h8.33v50.87c0,3.44-2.79,6.22-6.22,6.22-3.44,0-6.22-2.79-6.22-6.22v-46.74c0-2.27,1.85-4.12,4.12-4.12h0s0,0,0,0Z"/>
      <path class="cls-6" d="M0,141.62c0-7.52,5.76-13.7,13.12-14.35h6.08v14.35H0ZM27.13,105.93c4.51,0,8.16-3.66,8.16-8.16.05-4.51-3.56-8.2-8.07-8.25s-8.2,3.56-8.25,8.07c0,.06,0,.12,0,.18,0,4.51,3.66,8.16,8.16,8.16h0Z"/>
    </g>
  </g>
</svg>