<?xml version="1.0" encoding="UTF-8"?>
<svg xmlns="http://www.w3.org/2000/svg" xmlns:xlink="http://www.w3.org/1999/xlink" viewBox="0 0 115.22 115.21">
  <defs>
    <style>
      .cls-1 {
        fill: url(#linear-gradient-15);
      }

      .cls-2 {
        fill: url(#linear-gradient-13);
      }

      .cls-3 {
        opacity: .5;
      }

      .cls-3, .cls-4 {
        fill: #ff501c;
      }

      .cls-3, .cls-5, .cls-6 {
        isolation: isolate;
      }

      .cls-7 {
        fill: url(#linear-gradient-2);
      }

      .cls-8 {
        fill: #ff9500;
      }

      .cls-9 {
        fill: url(#linear-gradient-10);
      }

      .cls-10 {
        fill: url(#linear-gradient-12);
      }

      .cls-11 {
        fill: url(#linear-gradient-4);
      }

      .cls-12 {
        fill: url(#linear-gradient-3);
      }

      .cls-13 {
        fill: url(#linear-gradient-5);
      }

      .cls-14 {
        fill: url(#linear-gradient-8);
      }

      .cls-15 {
        fill: url(#linear-gradient-14);
      }

      .cls-16 {
        fill: url(#linear-gradient-7);
      }

      .cls-17 {
        fill: url(#linear-gradient-9);
      }

      .cls-18 {
        fill: url(#linear-gradient-11);
      }

      .cls-19 {
        fill: url(#linear-gradient-6);
      }

      .cls-6 {
        fill: #ffc919;
        fill-rule: evenodd;
        mix-blend-mode: hard-light;
      }

      .cls-20 {
        fill: url(#linear-gradient-16);
      }

      .cls-21 {
        fill: url(#linear-gradient);
      }
    </style>
    <linearGradient id="linear-gradient" x1="321.96" y1="718.18" x2="362.27" y2="718.47" gradientTransform="translate(-240 776.27) scale(1 -1)" gradientUnits="userSpaceOnUse">
      <stop offset="0" stop-color="#ff501c"/>
      <stop offset=".61" stop-color="#ff501c"/>
    </linearGradient>
    <linearGradient id="linear-gradient-2" x1="314.48" y1="701.1" x2="343.2" y2="672.8" xlink:href="#linear-gradient"/>
    <linearGradient id="linear-gradient-3" x1="297.12" y1="694.32" x2="297.41" y2="654" xlink:href="#linear-gradient"/>
    <linearGradient id="linear-gradient-4" x1="280.04" y1="701.79" x2="251.74" y2="673.07" xlink:href="#linear-gradient"/>
    <linearGradient id="linear-gradient-5" x1="273.25" y1="719.16" x2="232.93" y2="718.86" gradientTransform="translate(-240 776.27) scale(1 -1)" gradientUnits="userSpaceOnUse">
      <stop offset="0" stop-color="#ff9500"/>
      <stop offset=".61" stop-color="#ff9500"/>
    </linearGradient>
    <linearGradient id="linear-gradient-6" x1="280.73" y1="736.23" x2="252.01" y2="764.53" xlink:href="#linear-gradient-5"/>
    <linearGradient id="linear-gradient-7" x1="298.09" y1="743.02" x2="297.79" y2="783.34" xlink:href="#linear-gradient-5"/>
    <linearGradient id="linear-gradient-8" x1="315.17" y1="735.54" x2="343.47" y2="764.26" xlink:href="#linear-gradient"/>
    <linearGradient id="linear-gradient-9" x1="320.29" y1="727.53" x2="357.43" y2="743.23" xlink:href="#linear-gradient"/>
    <linearGradient id="linear-gradient-10" x1="319.91" y1="708.9" x2="357.28" y2="693.74" xlink:href="#linear-gradient"/>
    <linearGradient id="linear-gradient-11" x1="306.47" y1="695.98" x2="322.17" y2="658.84" xlink:href="#linear-gradient"/>
    <linearGradient id="linear-gradient-12" x1="287.84" y1="696.36" x2="272.68" y2="658.99" xlink:href="#linear-gradient"/>
    <linearGradient id="linear-gradient-13" x1="274.92" y1="709.81" x2="237.78" y2="694.1" xlink:href="#linear-gradient-5"/>
    <linearGradient id="linear-gradient-14" x1="275.29" y1="728.43" x2="237.93" y2="743.59" xlink:href="#linear-gradient-5"/>
    <linearGradient id="linear-gradient-15" x1="288.74" y1="741.36" x2="273.04" y2="778.49" xlink:href="#linear-gradient-5"/>
    <linearGradient id="linear-gradient-16" x1="307.37" y1="740.98" x2="322.52" y2="778.34" xlink:href="#linear-gradient-5"/>
  </defs>
  <g class="cls-5">
    <g id="Layer_2" data-name="Layer 2">
      <g id="Layer_1-2" data-name="Layer 1">
        <g>
          <path class="cls-21" d="M85.26,51.41c1.46-.55,2.98-1.02,4.6-1.33,1.62-.3,3.31-.41,4.96-.29,1.64.13,3.22.49,4.61,1.01,1.4.51,2.61,1.15,3.71,1.81,2.18,1.32,3.89,2.69,5.75,3.63.93.47,1.9.84,2.97,1.01,1.06.17,2.2.15,3.36-.06-.94.78-2.01,1.4-3.16,1.82-1.19.44-2.51.65-3.81.71-2.62.11-5.12-.32-7.26-.38-1.07-.03-2.06.01-2.91.18-.77.14-1.51.41-2.18.81-.6.36-1.16.8-1.65,1.29-.51.51-1,1.11-1.48,1.74-2.5,3.29-7.2,3.93-10.49,1.43-3.29-2.5-3.93-7.2-1.43-10.49.84-1.11,1.98-1.96,3.28-2.46l1.13-.42h0s0,0,0,0Z"/>
          <path class="cls-7" d="M81.53,72.78c1.42.64,2.84,1.39,4.19,2.31,1.35.93,2.63,2.05,3.71,3.31,1.03,1.2,1.89,2.54,2.55,3.97.62,1.35,1.03,2.67,1.34,3.9.61,2.48.85,4.65,1.51,6.63.32.99.76,1.94,1.38,2.82.63.88,1.45,1.66,2.42,2.33-1.22-.11-2.41-.44-3.52-.95-1.16-.53-2.23-1.31-3.19-2.2-1.92-1.77-3.4-3.85-4.87-5.4-.74-.78-1.46-1.44-2.18-1.92-.64-.44-1.36-.77-2.11-.98-.68-.17-1.38-.26-2.08-.25-.72,0-1.49.08-2.27.18-4.1.56-7.87-2.31-8.43-6.4-.56-4.1,2.31-7.87,6.41-8.43,1.38-.19,2.79.01,4.06.58l1.1.5h0Z"/>
          <path class="cls-12" d="M63.79,85.25c.55,1.46,1.02,2.98,1.33,4.6.3,1.62.41,3.31.29,4.96-.12,1.58-.46,3.13-1.01,4.61-.51,1.4-1.15,2.61-1.82,3.71-1.32,2.18-2.68,3.89-3.63,5.75-.47.93-.84,1.9-1.01,2.97-.17,1.06-.15,2.2.06,3.36-.78-.94-1.4-2.01-1.82-3.16-.44-1.19-.65-2.51-.71-3.81-.11-2.61.32-5.12.38-7.26.03-1.07-.01-2.06-.18-2.91-.14-.77-.41-1.51-.81-2.18-.36-.6-.8-1.16-1.29-1.65-.51-.51-1.11-1-1.74-1.48-3.29-2.5-3.93-7.2-1.43-10.49,2.5-3.29,7.2-3.93,10.49-1.43,1.11.84,1.96,1.98,2.46,3.28l.43,1.13h0Z"/>
          <path class="cls-11" d="M42.43,81.53c-.64,1.42-1.39,2.84-2.31,4.19-.93,1.35-2.05,2.64-3.31,3.71-1.2,1.03-2.54,1.89-3.97,2.54-1.35.62-2.67,1.03-3.9,1.34-2.48.61-4.65.85-6.63,1.5-.99.32-1.94.76-2.82,1.38-.88.63-1.66,1.45-2.33,2.43.11-1.17.41-2.37.95-3.52.53-1.15,1.31-2.23,2.2-3.19,1.77-1.92,3.85-3.4,5.4-4.87.78-.74,1.44-1.46,1.92-2.18.44-.64.77-1.36.98-2.11.17-.68.26-1.38.25-2.08,0-.72-.08-1.49-.18-2.27-.56-4.1,2.31-7.87,6.4-8.43,4.1-.56,7.87,2.31,8.43,6.4.19,1.38-.01,2.79-.58,4.06l-.5,1.1h0Z"/>
          <path class="cls-13" d="M29.96,63.79c-1.46.55-2.98,1.02-4.6,1.33-1.62.3-3.31.41-4.96.29-1.58-.12-3.13-.46-4.61-1.01-1.4-.51-2.62-1.15-3.71-1.82-2.18-1.32-3.88-2.69-5.75-3.63-.93-.47-1.9-.84-2.97-1.01-1.06-.17-2.2-.15-3.37.06.94-.78,2.01-1.4,3.16-1.81,1.19-.44,2.51-.65,3.81-.71,2.62-.11,5.12.32,7.26.38,1.07.03,2.06-.01,2.91-.18.77-.14,1.51-.41,2.18-.81.6-.36,1.16-.8,1.65-1.29.51-.51,1-1.11,1.48-1.74,2.5-3.29,7.2-3.93,10.49-1.43,3.29,2.5,3.93,7.2,1.43,10.49-.84,1.11-1.98,1.96-3.28,2.46l-1.13.43h0s0,0,0,0Z"/>
          <path class="cls-19" d="M33.68,42.43c-1.42-.64-2.84-1.39-4.19-2.31-1.35-.93-2.63-2.05-3.71-3.31-1.03-1.2-1.89-2.54-2.55-3.97-.62-1.35-1.03-2.67-1.34-3.91-.61-2.48-.85-4.65-1.51-6.63-.32-.99-.76-1.94-1.38-2.82-.63-.88-1.45-1.66-2.43-2.33,1.17.11,2.37.41,3.52.95,1.16.53,2.24,1.31,3.19,2.2,1.92,1.77,3.4,3.85,4.87,5.4.74.78,1.46,1.44,2.18,1.92.64.44,1.36.77,2.11.98.68.17,1.38.26,2.08.25.72,0,1.49-.08,2.27-.18,4.1-.56,7.87,2.31,8.43,6.41.56,4.1-2.31,7.87-6.41,8.43-1.38.19-2.79-.01-4.06-.58l-1.1-.49h0Z"/>
          <path class="cls-16" d="M51.41,29.96c-.55-1.46-1.02-2.98-1.33-4.6-.3-1.62-.41-3.31-.29-4.96.12-1.58.46-3.13,1.01-4.61.51-1.4,1.15-2.61,1.82-3.71,1.32-2.18,2.69-3.89,3.62-5.75.47-.93.84-1.9,1.01-2.97.17-1.06.15-2.2-.06-3.37.78.94,1.4,2.01,1.82,3.16.44,1.19.65,2.51.71,3.81.11,2.61-.32,5.12-.38,7.26-.03,1.07.01,2.06.18,2.91.14.77.41,1.51.81,2.18.36.6.8,1.16,1.29,1.65.51.51,1.11,1,1.74,1.48,3.29,2.5,3.93,7.2,1.43,10.49-2.5,3.29-7.2,3.93-10.49,1.43-1.11-.84-1.96-1.98-2.46-3.28l-.43-1.13h0Z"/>
          <path class="cls-14" d="M72.78,33.68c.64-1.42,1.39-2.84,2.31-4.19.93-1.35,2.05-2.63,3.31-3.71,1.2-1.03,2.54-1.89,3.97-2.55,1.35-.62,2.67-1.03,3.9-1.34,2.48-.61,4.65-.85,6.63-1.5.99-.32,1.94-.76,2.82-1.38.88-.63,1.66-1.45,2.33-2.42-.11,1.22-.44,2.41-.95,3.52-.53,1.16-1.31,2.23-2.2,3.19-1.77,1.92-3.85,3.4-5.4,4.87-.78.74-1.44,1.47-1.92,2.18-.44.64-.77,1.36-.98,2.11-.17.68-.25,1.38-.25,2.08,0,.72.08,1.49.18,2.27.56,4.1-2.31,7.87-6.41,8.43-4.1.56-7.87-2.31-8.43-6.4-.19-1.38.01-2.79.58-4.06l.49-1.1h0Z"/>
          <path class="cls-17" d="M80.78,41.31c1.14-1.07,2.37-2.09,3.74-2.99,1.38-.9,2.9-1.65,4.48-2.16,1.5-.49,3.07-.77,4.65-.83,1.49-.06,2.86.07,4.12.25,2.52.38,4.62,1,6.7,1.15,1.04.08,2.08.04,3.14-.2,1.1-.27,2.14-.72,3.08-1.35-.57,1.08-1.32,2.06-2.22,2.89-.94.86-2.07,1.56-3.25,2.11-2.37,1.1-4.86,1.66-6.86,2.43-1,.38-1.89.8-2.62,1.28-.65.43-1.23.96-1.71,1.58-.43.56-.75,1.17-1.03,1.83-.27.67-.5,1.41-.7,2.17-1.05,4-5.15,6.39-9.15,5.34-4-1.05-6.39-5.15-5.34-9.15.36-1.35,1.08-2.58,2.1-3.54l.88-.83h-.02Z"/>
          <path class="cls-9" d="M85.52,62.47c1.56.05,3.15.2,4.76.53,1.61.34,3.22.89,4.69,1.64,1.41.71,2.71,1.62,3.87,2.7,1.09,1.01,1.97,2.07,2.73,3.09,1.51,2.06,2.57,3.97,3.93,5.56.68.79,1.44,1.5,2.36,2.07.97.59,2.02,1,3.13,1.22-1.17.36-2.39.52-3.62.47-1.27-.05-2.57-.36-3.79-.81-2.46-.9-4.61-2.26-6.56-3.13-.98-.44-1.9-.78-2.76-.95-.76-.16-1.55-.19-2.32-.1-.7.1-1.36.3-2.02.57-.7.3-1.38.65-2.03,1.04-3.57,2.08-8.15.88-10.24-2.69-2.08-3.57-.88-8.15,2.69-10.24,1.21-.7,2.58-1.06,3.98-1.02l1.21.04h0s0,0,0,0Z"/>
          <path class="cls-18" d="M73.9,80.78c1.07,1.14,2.09,2.37,2.99,3.74.9,1.38,1.65,2.9,2.16,4.47.51,1.57.77,3.16.83,4.65.06,1.49-.07,2.86-.25,4.12-.38,2.52-.99,4.62-1.15,6.7-.08,1.04-.04,2.08.2,3.14.27,1.1.72,2.14,1.35,3.08-1.08-.57-2.06-1.32-2.89-2.22-.86-.94-1.56-2.07-2.11-3.25-1.1-2.37-1.66-4.86-2.43-6.86-.38-1-.8-1.89-1.28-2.62-.43-.65-.96-1.23-1.57-1.71-.57-.43-1.18-.75-1.83-1.03-.71-.28-1.43-.51-2.17-.7-4-1.05-6.39-5.15-5.33-9.15,0,0,0,0,0,0,1.05-4,5.15-6.39,9.14-5.33,0,0,0,0,0,0,1.35.35,2.57,1.08,3.53,2.1l.82.88v-.02s0,0,0,0Z"/>
          <path class="cls-10" d="M52.74,85.52c-.05,1.56-.2,3.15-.53,4.75-.34,1.61-.89,3.22-1.64,4.69-.71,1.41-1.62,2.71-2.7,3.87-1.01,1.09-2.07,1.97-3.09,2.73-2.06,1.51-3.97,2.57-5.55,3.93-.79.68-1.51,1.44-2.07,2.36-.59.96-1,2.02-1.23,3.13-.36-1.17-.52-2.39-.47-3.62.05-1.27.36-2.57.81-3.79.9-2.46,2.26-4.61,3.13-6.56.45-.98.77-1.9.95-2.75.17-.85.19-1.62.1-2.32-.1-.71-.3-1.36-.57-2.03-.3-.7-.65-1.38-1.04-2.03-2.08-3.57-.88-8.16,2.69-10.24,3.57-2.08,8.16-.88,10.24,2.69.7,1.2,1.06,2.58,1.02,3.97l-.04,1.21s0,0,0,0Z"/>
          <path class="cls-2" d="M34.43,73.9c-1.14,1.07-2.37,2.09-3.74,2.99-1.38.89-2.9,1.65-4.48,2.16-1.5.49-3.07.77-4.65.83-1.49.06-2.86-.07-4.12-.25-2.52-.38-4.62-1-6.7-1.15-1.04-.08-2.08-.04-3.14.2-1.1.27-2.14.72-3.08,1.35.57-1.08,1.32-2.06,2.22-2.89.94-.86,2.07-1.56,3.25-2.11,2.37-1.1,4.86-1.66,6.86-2.43,1-.38,1.89-.8,2.62-1.28.65-.43,1.23-.96,1.71-1.58.43-.57.75-1.18,1.03-1.83.27-.67.5-1.41.7-2.17,1.05-4,5.15-6.39,9.15-5.33,0,0,0,0,0,0,4,1.05,6.39,5.15,5.33,9.15,0,0,0,0,0,0-.35,1.35-1.08,2.57-2.1,3.53l-.88.82h.02Z"/>
          <path class="cls-15" d="M29.69,52.74c-1.56-.05-3.15-.2-4.76-.53-1.63-.34-3.2-.89-4.69-1.64-1.41-.71-2.71-1.62-3.87-2.7-1.09-1.01-1.98-2.07-2.73-3.09-1.51-2.06-2.57-3.97-3.93-5.56-.68-.79-1.44-1.5-2.36-2.07-.97-.59-2.02-1-3.13-1.22,1.17-.36,2.39-.52,3.61-.47,1.27.05,2.57.36,3.79.81,2.46.9,4.61,2.25,6.56,3.13.98.44,1.9.77,2.76.95.85.17,1.62.19,2.32.1.7-.1,1.36-.3,2.02-.56.67-.28,1.35-.64,2.03-1.04,3.57-2.08,8.16-.88,10.24,2.7,0,0,0,0,0,0,2.08,3.57.87,8.16-2.7,10.24-1.2.7-2.58,1.05-3.97,1.02l-1.21-.04h0s0-.01,0-.01Z"/>
          <path class="cls-1" d="M41.31,34.43c-1.07-1.14-2.09-2.37-2.99-3.74-.9-1.38-1.65-2.9-2.16-4.48-.49-1.5-.77-3.07-.83-4.65-.06-1.49.07-2.86.25-4.12.38-2.52.99-4.62,1.15-6.7.08-1.04.04-2.08-.2-3.14-.27-1.1-.72-2.14-1.35-3.08,1.08.57,2.06,1.32,2.89,2.22.86.94,1.56,2.07,2.11,3.25,1.1,2.37,1.66,4.86,2.43,6.86.38,1,.8,1.89,1.28,2.62.43.65.96,1.23,1.57,1.71.57.43,1.18.75,1.83,1.03.71.28,1.43.51,2.17.7,4,1.05,6.39,5.15,5.33,9.15,0,0,0,0,0,0-1.05,4-5.15,6.39-9.15,5.33-1.35-.36-2.57-1.08-3.53-2.09l-.82-.88v.02s0,0,0,0Z"/>
          <path class="cls-20" d="M62.47,29.69c.05-1.56.2-3.15.53-4.75.34-1.63.89-3.2,1.64-4.69.71-1.41,1.62-2.71,2.7-3.87,1.01-1.09,2.07-1.97,3.09-2.73,2.06-1.51,3.97-2.57,5.55-3.93.79-.68,1.51-1.44,2.07-2.36.59-.96,1-2.02,1.23-3.13.34,1.12.53,2.34.47,3.62-.05,1.27-.36,2.57-.81,3.79-.9,2.46-2.25,4.61-3.13,6.56-.45.98-.77,1.9-.95,2.75-.16.76-.19,1.55-.1,2.32.1.7.3,1.36.57,2.02.3.7.65,1.38,1.04,2.03,2.08,3.57.88,8.16-2.7,10.24,0,0,0,0,0,0-3.57,2.08-8.16.88-10.24-2.7-.7-1.2-1.05-2.58-1.02-3.98l.04-1.21h.01Z"/>
          <path class="cls-4" d="M57.6,92.18c19.1,0,34.58-15.48,34.58-34.58s-15.48-34.58-34.58-34.58-34.58,15.48-34.58,34.58,15.48,34.58,34.58,34.58h0Z"/>
          <path class="cls-8" d="M57.6,92.86c19.46,0,35.23-15.78,35.23-35.23s-15.77-35.23-35.23-35.23-35.23,15.78-35.23,35.23,15.77,35.23,35.23,35.23h0Z"/>
          <path class="cls-3" d="M86.86,37.99c-4.19-6.26-10.29-11.01-17.38-13.53,1.01,1.15,1.94,2.35,2.8,3.62,10.84,16.16,6.54,38.05-9.62,48.89-9.65,6.47-21.34,7.55-31.51,3.92,11.5,13.12,31.22,15.98,46.09,5.99,16.16-10.84,20.46-32.73,9.62-48.89h0Z"/>
          <path class="cls-6" d="M47.99,31.56c-10.15,0-18.38,8.23-18.38,18.38s8.23,18.38,18.38,18.38,18.38-8.23,18.38-18.38-8.23-18.38-18.38-18.38h0Z"/>
        </g>
      </g>
    </g>
  </g>
</svg>