# Blender v3.0.1 OBJ File: 'Creeper.blend'
# www.blender.org
mtllib CreeperExportado.mtl
o Creeper_Cube.002
v -0.496222 0.000357 -0.000618
v -0.496222 0.000357 0.495604
v -0.165407 0.000357 -0.000618
v -0.165407 0.000357 0.495604
v -0.496222 -0.330815 -0.000618
v -0.496222 -0.330815 0.495604
v -0.165407 -0.330815 -0.000618
v -0.165407 -0.330815 0.495604
v 0.330815 -0.330815 2.149677
v 0.330815 -0.330815 1.488048
v -0.330815 -0.330815 2.149677
v -0.330815 -0.330815 1.488048
v 0.330815 0.330815 2.149677
v 0.330815 0.330815 1.488048
v -0.330815 0.330815 2.149677
v -0.330815 0.330815 1.488048
v -0.165407 0.330815 0.495604
v -0.165407 0.330815 1.488048
v 0.165407 0.330815 0.495604
v 0.165407 0.330815 1.488048
v -0.165407 -0.330815 0.495604
v -0.165407 -0.330815 1.488048
v 0.165407 -0.330815 0.495604
v 0.165407 -0.330815 1.488048
v 0.165407 0.330815 -0.000618
v 0.165407 0.330815 0.495604
v 0.496222 0.330815 -0.000618
v 0.496222 0.330815 0.495604
v 0.165407 -0.000000 -0.000618
v 0.165407 -0.000000 0.495604
v 0.496222 -0.000000 -0.000618
v 0.496222 -0.000000 0.495604
v 0.165407 -0.000000 -0.000618
v 0.165407 -0.000000 0.495604
v 0.496222 -0.000000 -0.000618
v 0.496222 -0.000000 0.495604
v 0.165407 -0.330815 -0.000618
v 0.165407 -0.330815 0.495604
v 0.496222 -0.330815 -0.000618
v 0.496222 -0.330815 0.495604
v -0.496222 0.330815 -0.000618
v -0.496222 0.330815 0.495604
v -0.165407 0.330815 -0.000618
v -0.165407 0.330815 0.495604
v -0.496222 -0.000000 -0.000618
v -0.496222 -0.000000 0.495604
v -0.165407 -0.000000 -0.000618
v -0.165407 -0.000000 0.495604
vt 0.062500 0.187500
vt 0.062500 0.375000
vt -0.000000 0.375000
vt 0.000000 0.187500
vt 0.250000 0.187500
vt 0.250000 0.375000
vt 0.187500 0.375000
vt 0.187500 0.187500
vt 0.125000 0.375000
vt 0.125000 0.187500
vt 0.125000 0.375000
vt 0.187500 0.375000
vt 0.187500 0.500000
vt 0.125000 0.500000
vt 0.062500 0.375000
vt 0.125000 0.375000
vt 0.125000 0.500000
vt 0.062500 0.500000
vt 0.250000 1.000000
vt 0.125000 1.000000
vt 0.125000 0.750000
vt 0.250000 0.750000
vt 0.250000 0.500000
vt 0.125000 0.500000
vt 0.000000 0.750000
vt -0.000000 0.500000
vt 0.375000 1.000000
vt 0.250000 1.000000
vt 0.250000 0.750000
vt 0.375000 0.750000
vt 0.375000 0.500000
vt 0.375000 0.750000
vt 0.500000 0.500000
vt 0.500000 0.750000
vt 0.312500 -0.000000
vt 0.312500 0.375000
vt 0.250000 0.375000
vt 0.250000 0.000000
vt 0.500000 0.375000
vt 0.500000 0.000000
vt 0.625000 0.000000
vt 0.625000 0.375000
vt 0.500000 -0.000000
vt 0.500000 0.375000
vt 0.437500 0.375000
vt 0.437500 -0.000000
vt 0.437500 0.500000
vt 0.562500 0.500000
vt 0.562500 0.375000
vt 0.437500 0.375000
vt 0.000000 0.000000
vt 1.000000 0.000000
vt 1.000000 1.000000
vt 0.000000 1.000000
vt 0.062500 0.187500
vt 0.062500 0.375000
vt -0.000000 0.375000
vt 0.000000 0.187500
vt 0.250000 0.187500
vt 0.250000 0.375000
vt 0.187500 0.375000
vt 0.187500 0.187500
vt 0.125000 0.375000
vt 0.125000 0.187500
vt 0.125000 0.375000
vt 0.187500 0.375000
vt 0.187500 0.500000
vt 0.125000 0.500000
vt 0.062500 0.375000
vt 0.125000 0.375000
vt 0.125000 0.500000
vt 0.062500 0.500000
vt 0.062500 0.187500
vt 0.062500 0.375000
vt -0.000000 0.375000
vt 0.000000 0.187500
vt 0.250000 0.187500
vt 0.250000 0.375000
vt 0.187500 0.375000
vt 0.187500 0.187500
vt 0.125000 0.375000
vt 0.125000 0.187500
vt 0.125000 0.375000
vt 0.187500 0.375000
vt 0.187500 0.500000
vt 0.125000 0.500000
vt 0.062500 0.375000
vt 0.125000 0.375000
vt 0.125000 0.500000
vt 0.062500 0.500000
vt 0.062500 0.187500
vt 0.062500 0.375000
vt -0.000000 0.375000
vt 0.000000 0.187500
vt 0.250000 0.187500
vt 0.250000 0.375000
vt 0.187500 0.375000
vt 0.187500 0.187500
vt 0.125000 0.375000
vt 0.125000 0.187500
vt 0.125000 0.375000
vt 0.187500 0.375000
vt 0.187500 0.500000
vt 0.125000 0.500000
vt 0.062500 0.375000
vt 0.125000 0.375000
vt 0.125000 0.500000
vt 0.062500 0.500000
vn 0.0000 1.0000 0.0000
vn 1.0000 0.0000 0.0000
vn 0.0000 -1.0000 0.0000
vn -1.0000 0.0000 0.0000
vn 0.0000 0.0000 -1.0000
vn 0.0000 0.0000 1.0000
usemtl Material
s off
f 1/1/1 2/2/1 4/3/1 3/4/1
f 3/5/2 4/6/2 8/7/2 7/8/2
f 7/8/3 8/7/3 6/9/3 5/10/3
f 5/10/4 6/9/4 2/2/4 1/1/4
f 3/11/5 7/12/5 5/13/5 1/14/5
f 8/15/6 4/16/6 2/17/6 6/18/6
f 9/19/6 13/20/6 15/21/6 11/22/6
f 12/23/4 11/22/4 15/21/4 16/24/4
f 16/24/1 15/21/1 13/25/1 14/26/1
f 14/27/5 10/28/5 12/29/5 16/30/5
f 10/31/3 9/32/3 11/22/3 12/23/3
f 14/33/2 13/34/2 9/32/2 10/31/2
f 17/35/1 18/36/1 20/37/1 19/38/1
f 19/39/2 20/40/2 24/41/2 23/42/2
f 23/43/3 24/44/3 22/45/3 21/46/3
f 21/46/4 22/45/4 18/36/4 17/35/4
f 19/47/5 23/48/5 21/49/5 17/50/5
f 24/51/6 20/52/6 18/53/6 22/54/6
f 25/55/1 26/56/1 28/57/1 27/58/1
f 27/59/2 28/60/2 32/61/2 31/62/2
f 31/62/3 32/61/3 30/63/3 29/64/3
f 29/64/4 30/63/4 26/56/4 25/55/4
f 27/65/5 31/66/5 29/67/5 25/68/5
f 32/69/6 28/70/6 26/71/6 30/72/6
f 33/73/1 34/74/1 36/75/1 35/76/1
f 35/77/2 36/78/2 40/79/2 39/80/2
f 39/80/3 40/79/3 38/81/3 37/82/3
f 37/82/4 38/81/4 34/74/4 33/73/4
f 35/83/5 39/84/5 37/85/5 33/86/5
f 40/87/6 36/88/6 34/89/6 38/90/6
f 41/91/1 42/92/1 44/93/1 43/94/1
f 43/95/2 44/96/2 48/97/2 47/98/2
f 47/98/3 48/97/3 46/99/3 45/100/3
f 45/100/4 46/99/4 42/92/4 41/91/4
f 43/101/5 47/102/5 45/103/5 41/104/5
f 48/105/6 44/106/6 42/107/6 46/108/6
