<svg xmlns="http://www.w3.org/2000/svg" width="min(33.263vw, 29.938rem)" fill="none" viewBox="0 0 480 217"><path fill="url(#a)" d="M261.543 51.885c1.461-.552 2.984-1.022 4.597-1.333 1.618-.298 3.313-.413 4.958-.286 1.644.127 3.218.495 4.609 1.01 1.396.514 2.615 1.155 3.707 1.815 2.184 1.32 3.885 2.686 5.752 3.631.933.47 1.904.838 2.971 1.01 1.06.171 2.202.146 3.364-.064a10.663 10.663 0 0 1-3.161 1.816c-1.194.438-2.514.648-3.809.705-2.616.108-5.123-.324-7.263-.375-1.073-.032-2.057.013-2.907.184a6.825 6.825 0 0 0-2.184.806 8.345 8.345 0 0 0-1.651 1.295c-.508.515-.996 1.112-1.479 1.74a7.486 7.486 0 0 1-10.487 1.428 7.486 7.486 0 0 1 1.853-12.95l1.13-.425v-.007Z"/><path fill="url(#b)" d="M257.816 73.248c1.422.642 2.838 1.39 4.19 2.311 1.352.933 2.634 2.05 3.707 3.308a16.9 16.9 0 0 1 2.546 3.974c.622 1.352 1.028 2.666 1.339 3.904.61 2.476.851 4.647 1.505 6.634.324.99.755 1.942 1.384 2.819.628.876 1.453 1.663 2.425 2.33a10.725 10.725 0 0 1-3.517-.953c-1.156-.533-2.235-1.314-3.193-2.196-1.924-1.772-3.397-3.848-4.87-5.403-.736-.78-1.46-1.44-2.183-1.923a6.902 6.902 0 0 0-2.114-.978 8.544 8.544 0 0 0-2.083-.254c-.723 0-1.491.076-2.272.184a7.49 7.49 0 0 1-8.431-6.405 7.49 7.49 0 0 1 6.406-8.43 7.434 7.434 0 0 1 4.063.583l1.098.495Z"/><path fill="url(#c)" d="M240.08 85.721c.552 1.46 1.022 2.984 1.333 4.596.299 1.62.413 3.314.286 4.958a17.193 17.193 0 0 1-1.01 4.61c-.514 1.396-1.155 2.615-1.815 3.707-1.321 2.183-2.685 3.885-3.631 5.751-.47.933-.838 1.905-1.01 2.971-.171 1.06-.146 2.203.064 3.365a10.674 10.674 0 0 1-1.816-3.162c-.438-1.193-.647-2.514-.705-3.809-.107-2.615.324-5.123.375-7.262.032-1.073-.013-2.057-.184-2.908a6.821 6.821 0 0 0-.806-2.183 8.367 8.367 0 0 0-1.295-1.65c-.515-.509-1.111-.998-1.74-1.48a7.487 7.487 0 0 1-1.428-10.487 7.486 7.486 0 0 1 12.95 1.853l.426 1.13h.006Z"/><path fill="url(#d)" d="M218.716 82.001c-.641 1.422-1.39 2.838-2.31 4.19-.934 1.352-2.051 2.635-3.308 3.708a16.868 16.868 0 0 1-3.974 2.545c-1.352.623-2.666 1.029-3.904 1.34-2.476.61-4.647.85-6.634 1.504-.99.324-1.943.756-2.819 1.384-.876.629-1.663 1.454-2.329 2.425.114-1.168.412-2.368.952-3.517.533-1.155 1.314-2.234 2.196-3.193 1.771-1.923 3.847-3.396 5.403-4.869.781-.736 1.441-1.46 1.923-2.184a6.895 6.895 0 0 0 .978-2.114 8.557 8.557 0 0 0 .254-2.082c0-.724-.076-1.492-.184-2.273a7.489 7.489 0 0 1 6.405-8.43 7.49 7.49 0 0 1 8.431 6.405 7.443 7.443 0 0 1-.584 4.063l-.496 1.098Z"/><path fill="url(#e)" d="M206.243 64.266c-1.46.552-2.984 1.022-4.596 1.333-1.619.298-3.314.412-4.958.285a17.215 17.215 0 0 1-4.609-1.009c-1.397-.514-2.616-1.155-3.708-1.816-2.183-1.32-3.885-2.685-5.751-3.63-.933-.47-1.905-.839-2.971-1.01-1.06-.172-2.203-.146-3.365.063a10.671 10.671 0 0 1 3.162-1.815c1.193-.438 2.514-.648 3.809-.705 2.615-.108 5.123.324 7.262.375 1.073.031 2.057-.013 2.908-.184a6.82 6.82 0 0 0 2.183-.807 8.345 8.345 0 0 0 1.651-1.295c.508-.514.997-1.11 1.479-1.74a7.486 7.486 0 0 1 10.487-1.428 7.486 7.486 0 0 1-1.853 12.95l-1.13.426v.007Z"/><path fill="url(#f)" d="M209.961 42.904c-1.422-.641-2.837-1.39-4.19-2.31-1.352-.934-2.634-2.051-3.707-3.308a16.9 16.9 0 0 1-2.546-3.974c-.622-1.352-1.028-2.667-1.339-3.905-.61-2.475-.851-4.646-1.505-6.634-.324-.99-.755-1.942-1.384-2.818-.628-.876-1.453-1.663-2.425-2.33 1.168.114 2.368.413 3.517.952 1.156.533 2.235 1.314 3.193 2.197 1.924 1.77 3.397 3.847 4.87 5.402.736.781 1.46 1.441 2.183 1.924a6.904 6.904 0 0 0 2.114.977 8.544 8.544 0 0 0 2.083.254c.723 0 1.491-.076 2.272-.184a7.49 7.49 0 0 1 8.431 6.406 7.49 7.49 0 0 1-6.406 8.43 7.434 7.434 0 0 1-4.063-.584l-1.098-.495Z"/><path fill="url(#g)" d="M227.699 30.428c-.552-1.46-1.022-2.983-1.333-4.596-.298-1.619-.412-3.314-.285-4.958a17.192 17.192 0 0 1 1.009-4.609c.514-1.396 1.155-2.615 1.815-3.707 1.321-2.184 2.686-3.885 3.625-5.752.47-.933.838-1.904 1.01-2.97.171-1.06.146-2.204-.064-3.365a10.747 10.747 0 0 1 1.816 3.161c.438 1.194.647 2.514.705 3.81.107 2.615-.324 5.122-.375 7.262-.032 1.072.013 2.056.184 2.907a6.82 6.82 0 0 0 .806 2.184 8.371 8.371 0 0 0 1.295 1.65c.515.508 1.111.997 1.74 1.48a7.487 7.487 0 0 1 1.428 10.487 7.486 7.486 0 0 1-12.95-1.854l-.426-1.13Z"/><path fill="url(#h)" d="M249.067 34.15c.641-1.421 1.39-2.837 2.311-4.19.933-1.351 2.05-2.634 3.307-3.707a16.889 16.889 0 0 1 3.974-2.545c1.352-.622 2.666-1.029 3.904-1.34 2.476-.61 4.647-.85 6.634-1.504.991-.324 1.943-.756 2.819-1.384.876-.629 1.663-1.454 2.33-2.425a10.733 10.733 0 0 1-.953 3.517c-.533 1.155-1.314 2.234-2.196 3.193-1.771 1.923-3.847 3.396-5.402 4.869-.781.736-1.442 1.466-1.924 2.184a6.895 6.895 0 0 0-.978 2.114 8.607 8.607 0 0 0-.254 2.082c0 .724.077 1.492.185 2.273a7.49 7.49 0 0 1-6.406 8.43 7.489 7.489 0 0 1-8.43-6.405 7.424 7.424 0 0 1 .584-4.063l.495-1.098Z"/><path fill="url(#i)" d="M257.067 41.78c1.136-1.066 2.368-2.088 3.739-2.99 1.384-.895 2.901-1.65 4.475-2.158a17.135 17.135 0 0 1 4.647-.832c1.486-.057 2.857.07 4.12.254 2.521.381 4.622.997 6.704 1.15 1.041.075 2.083.044 3.136-.204a9.809 9.809 0 0 0 3.079-1.346 10.817 10.817 0 0 1-2.222 2.889c-.939.863-2.069 1.562-3.25 2.114-2.374 1.104-4.856 1.663-6.856 2.431-1.003.381-1.892.8-2.616 1.282a6.878 6.878 0 0 0-1.707 1.581c-.432.565-.749 1.175-1.029 1.829-.273.672-.501 1.409-.698 2.17a7.488 7.488 0 1 1-12.386-7.345l.883-.825h-.019Z"/><path fill="url(#j)" d="M261.801 62.94c1.561.05 3.149.197 4.755.527 1.606.343 3.218.889 4.691 1.638a16.948 16.948 0 0 1 3.873 2.698c1.091 1.01 1.974 2.07 2.729 3.091 1.511 2.057 2.565 3.968 3.93 5.555.679.787 1.441 1.505 2.361 2.07a9.808 9.808 0 0 0 3.13 1.225 10.712 10.712 0 0 1-3.618.47c-1.27-.051-2.571-.362-3.79-.806-2.457-.902-4.609-2.26-6.564-3.13-.978-.445-1.905-.775-2.756-.946a6.95 6.95 0 0 0-2.323-.095c-.705.095-1.359.298-2.025.565a17.62 17.62 0 0 0-2.032 1.04 7.485 7.485 0 1 1-3.567-13.947l1.206.039v.006Z"/><path fill="url(#k)" d="M250.185 81.254c1.067 1.137 2.089 2.368 2.99 3.74.895 1.384 1.651 2.9 2.158 4.475.515 1.568.775 3.162.832 4.647.057 1.486-.07 2.857-.254 4.12-.381 2.52-.99 4.622-1.149 6.704-.076 1.041-.044 2.082.203 3.136a9.826 9.826 0 0 0 1.346 3.079 10.805 10.805 0 0 1-2.888-2.222c-.864-.939-1.562-2.069-2.114-3.25-1.105-2.374-1.664-4.857-2.432-6.856-.381-1.003-.8-1.892-1.282-2.616a6.994 6.994 0 0 0-1.574-1.708c-.572-.431-1.175-.749-1.829-1.028a17.384 17.384 0 0 0-2.171-.698 7.486 7.486 0 0 1-5.332-9.148 7.485 7.485 0 0 1 9.147-5.333 7.413 7.413 0 0 1 3.53 2.095l.825.882-.006-.019Z"/><path fill="url(#l)" d="M229.026 85.989c-.051 1.561-.197 3.148-.527 4.754-.343 1.607-.888 3.219-1.638 4.692a16.9 16.9 0 0 1-2.698 3.872c-1.009 1.092-2.069 1.975-3.091 2.73-2.057 1.511-3.968 2.565-5.555 3.93-.794.679-1.505 1.441-2.07 2.361a9.79 9.79 0 0 0-1.225 3.13 10.715 10.715 0 0 1-.47-3.619c.051-1.269.362-2.571.807-3.79.901-2.456 2.26-4.608 3.129-6.564.445-.977.775-1.904.946-2.755.172-.85.191-1.619.096-2.323-.096-.705-.299-1.359-.565-2.025a17.72 17.72 0 0 0-1.042-2.032c-2.082-3.574-.876-8.157 2.692-10.24 3.574-2.082 8.158-.876 10.24 2.692a7.448 7.448 0 0 1 1.016 3.974l-.038 1.206-.007.007Z"/><path fill="url(#m)" d="M210.711 74.373c-1.136 1.066-2.368 2.089-3.739 2.99-1.384.895-2.901 1.65-4.476 2.159a17.128 17.128 0 0 1-4.647.831c-1.485.057-2.856-.07-4.12-.254-2.52-.38-4.621-.996-6.703-1.149-1.042-.076-2.083-.044-3.137.203a9.816 9.816 0 0 0-3.078 1.346 10.833 10.833 0 0 1 2.221-2.888c.94-.864 2.07-1.562 3.251-2.114 2.374-1.099 4.856-1.664 6.856-2.432 1.003-.38 1.892-.8 2.615-1.282a6.884 6.884 0 0 0 1.708-1.58c.432-.566.749-1.175 1.029-1.83.273-.672.501-1.409.698-2.17a7.486 7.486 0 0 1 9.148-5.333 7.486 7.486 0 0 1 5.332 9.148 7.41 7.41 0 0 1-2.095 3.53l-.882.825h.019Z"/><path fill="url(#n)" d="M205.975 53.216c-1.561-.051-3.149-.197-4.755-.527a19.337 19.337 0 0 1-4.691-1.638 16.925 16.925 0 0 1-3.872-2.698c-1.092-1.01-1.975-2.07-2.73-3.092-1.511-2.057-2.565-3.968-3.93-5.555-.679-.787-1.441-1.504-2.361-2.07a9.804 9.804 0 0 0-3.13-1.224 10.697 10.697 0 0 1 3.612-.47c1.27.05 2.571.362 3.79.806 2.457.902 4.609 2.254 6.564 3.13.978.444 1.905.774 2.755.946.851.171 1.619.19 2.324.095.704-.095 1.358-.298 2.025-.565.666-.28 1.346-.641 2.031-1.041a7.487 7.487 0 0 1 10.24 2.698 7.487 7.487 0 0 1-6.672 11.255l-1.206-.038.006-.012Z"/><path fill="url(#o)" d="M217.593 34.899c-1.067-1.137-2.089-2.368-2.99-3.74-.895-1.383-1.651-2.9-2.159-4.475a17.133 17.133 0 0 1-.831-4.647c-.057-1.486.07-2.857.254-4.12.381-2.52.99-4.622 1.149-6.704.076-1.041.044-2.082-.203-3.136a9.83 9.83 0 0 0-1.346-3.079 10.82 10.82 0 0 1 2.888 2.222c.864.94 1.562 2.07 2.114 3.25 1.098 2.374 1.664 4.857 2.432 6.856.381 1.003.8 1.892 1.282 2.616a6.972 6.972 0 0 0 1.574 1.708c.572.431 1.175.749 1.829 1.028a17.4 17.4 0 0 0 2.171.698 7.486 7.486 0 0 1 5.332 9.148 7.486 7.486 0 0 1-12.677 3.238l-.825-.883.006.02Z"/><path fill="url(#p)" d="M238.751 30.163c.051-1.562.197-3.149.527-4.755a19.343 19.343 0 0 1 1.638-4.692 16.93 16.93 0 0 1 2.698-3.872c1.009-1.092 2.069-1.974 3.091-2.73 2.057-1.51 3.968-2.565 5.555-3.93.794-.679 1.505-1.44 2.07-2.36a9.789 9.789 0 0 0 1.225-3.13c.343 1.117.527 2.342.47 3.618-.051 1.27-.362 2.571-.806 3.79-.902 2.457-2.254 4.609-3.13 6.564-.445.978-.775 1.904-.946 2.755a6.943 6.943 0 0 0-.095 2.324c.095.704.298 1.358.565 2.025a17.55 17.55 0 0 0 1.041 2.031 7.487 7.487 0 0 1-2.698 10.24 7.487 7.487 0 0 1-11.256-6.672l.038-1.206h.013Z"/><path stroke="#F70" stroke-linecap="round" stroke-linejoin="round" stroke-width="7.256" d="M109.232 87.387v60.982h125.335"/><path stroke="#FF5900" stroke-linecap="round" stroke-linejoin="round" stroke-width="7.256" d="M109.232 87.387v24.136"/><path stroke="#F70" stroke-linecap="round" stroke-linejoin="round" stroke-width="7.256" d="M443.559 111.521v60.982H234.566"/><path stroke="#FF5900" stroke-linecap="round" stroke-linejoin="round" stroke-width="7.256" d="M443.559 111.521v15.357"/><path fill="#00C28E" d="M404.264 119.89c-3.168-5.136 11.122-19.692 31.913-32.51 20.79-12.817 40.216-19.044 43.384-13.902"/><path stroke="#00ADB3" stroke-linecap="round" stroke-miterlimit="10" stroke-width="1.879" d="M409.713 116.532c-2.381-3.86 10.113-15.871 27.894-26.834 17.782-10.964 34.122-16.722 36.503-12.868"/><path fill="#FF2EE7" d="M441.241 117.388c12.036 0 21.794-9.757 21.794-21.794 0-12.036-9.758-21.793-21.794-21.793-12.036 0-21.794 9.757-21.794 21.793 0 12.037 9.758 21.794 21.794 21.794Z"/><path fill="#B700FF" fill-rule="evenodd" d="M462.907 93.232c-.857-7.853-5.777-14.271-12.443-17.388a21.699 21.699 0 0 1 4.361 10.893c1.302 11.96-7.338 22.715-19.305 24.016a21.678 21.678 0 0 1-11.573-1.917c4.482 5.84 11.808 9.268 19.661 8.411 11.96-1.301 20.607-12.055 19.305-24.015h-.006Z" clip-rule="evenodd"/><path fill="#BB94FF" fill-rule="evenodd" d="M435.109 79.147c-5.682 0-10.291 4.608-10.291 10.29 0 5.682 4.609 10.29 10.291 10.29S445.4 95.12 445.4 89.438c0-5.682-4.609-10.29-10.291-10.29Z" clip-rule="evenodd" style="mix-blend-mode:hard-light"/><path fill="#00C28E" d="M404.264 119.891c3.167 5.136 22.587-1.086 43.384-13.903 20.791-12.817 35.081-27.374 31.913-32.51l-19.102 11.777c1.562 2.533-5.479 9.7-15.719 16.016-10.239 6.317-19.806 9.383-21.368 6.85l-19.102 11.776-.006-.006Z"/><path stroke="#00ADB3" stroke-linecap="round" stroke-miterlimit="10" stroke-width="1.879" d="M474.108 76.836c2.381 3.86-10.113 15.87-27.894 26.834-17.782 10.964-34.122 16.722-36.503 12.868"/><path stroke="#F70" stroke-linecap="round" stroke-linejoin="round" stroke-width="7.256" d="M334.622 65.897v60.981H234.566"/><path stroke="#FF5900" stroke-linecap="round" stroke-linejoin="round" stroke-width="7.256" d="M334.623 65.897v13.858"/><path fill="#00B38F" d="M234.433 83.31a7.406 7.406 0 0 1 7.402 7.403v62.696h-14.798V90.713a7.406 7.406 0 0 1 7.402-7.402h-.006Z"/><path fill="#00CC8B" d="M231.932 153.403h-4.895V95.341a2.452 2.452 0 0 1 4.901 0v58.062h-.006Z"/><path fill="#0098B3" d="M234.433 83.31a7.406 7.406 0 0 1 7.402 7.403v10.893h-14.798V90.713a7.406 7.406 0 0 1 7.402-7.402h-.006Z"/><path fill="#00B38F" d="M243.506 113.051h-18.15a4.12 4.12 0 0 0-4.12 4.12v95.009a4.12 4.12 0 0 0 4.12 4.12h18.15a4.12 4.12 0 0 0 4.12-4.12v-95.009a4.12 4.12 0 0 0-4.12-4.12Z"/><path fill="#00CC8B" d="M225.362 113.051h4.12v99.129a4.124 4.124 0 0 1-4.12 4.12 4.124 4.124 0 0 1-4.12-4.12v-95.009a4.124 4.124 0 0 1 4.12-4.12Z"/><path fill="#00B38F" d="M228.88 129.627a5.974 5.974 0 1 0 0-11.948 5.974 5.974 0 0 0 0 11.948Z"/><path fill="#0098B3" d="M250.481 135.221h-32.097a4.12 4.12 0 0 0-4.12 4.12v72.84a4.12 4.12 0 0 0 4.12 4.12h32.097a4.12 4.12 0 0 0 4.12-4.12v-72.84a4.12 4.12 0 0 0-4.12-4.12Z"/><path fill="#00ADB3" d="M218.384 135.221h6.977v81.08h-11.097v-76.96a4.123 4.123 0 0 1 4.12-4.12ZM243.002 156.41a8.164 8.164 0 1 0 0-16.328 8.164 8.164 0 1 0 0 16.328Z"/><path fill="#0080B3" d="M262.156 201.948V169.14c0-5.485-4.45-9.935-9.935-9.935h-39.055a6.454 6.454 0 0 0-6.456 6.456v36.281c-7.358.654-13.122 6.831-13.122 14.353h81.69c0-7.522-5.764-13.699-13.122-14.353v.006Z"/><path fill="#0080B3" d="M262.155 201.948v-38.617a4.12 4.12 0 0 0-4.12-4.12h-47.199a4.12 4.12 0 0 0-4.12 4.12v38.617c-7.358.654-13.122 6.83-13.122 14.353h81.69c0-7.523-5.765-13.699-13.122-14.353h-.007Z"/><path fill="#008BC2" d="M193.588 216.303c0-7.523 5.764-13.7 13.122-14.354h55.446c7.358.654 13.122 6.831 13.122 14.354h-81.69Z"/><path fill="#0098B3" d="M210.831 159.211h8.328v50.869a6.223 6.223 0 0 1-6.221 6.221 6.223 6.223 0 0 1-6.221-6.221v-46.743a4.124 4.124 0 0 1 4.12-4.12l-.006-.006Z"/><path fill="#0098B3" d="M193.588 216.303c0-7.523 5.764-13.7 13.122-14.354h6.082v14.354h-19.204ZM220.721 180.607a8.164 8.164 0 0 0 8.163-8.164 8.164 8.164 0 1 0-16.327 0 8.164 8.164 0 0 0 8.164 8.164Z"/><path fill="#FF501C" fill-rule="evenodd" d="M346.234 46.686c-6.412-6.412-16.804-6.412-23.216 0-6.412 6.412-6.412 16.804 0 23.215 6.412 6.412 16.804 6.412 23.216 0 6.411-6.411 6.411-16.803 0-23.215Z" clip-rule="evenodd"/><mask id="q" width="34" height="34" x="318" y="41" maskUnits="userSpaceOnUse" style="mask-type:luminance"><path fill="#fff" d="M346.237 46.688c-6.411-6.412-16.803-6.412-23.215 0-6.412 6.411-6.412 16.804 0 23.215 6.412 6.412 16.804 6.412 23.215 0 6.412-6.411 6.412-16.804 0-23.215Z"/></mask><g fill="#E62E43" fill-rule="evenodd" clip-rule="evenodd" mask="url(#q)"><path d="M329.075 52.403a8.33 8.33 0 0 0-11.776 0 8.33 8.33 0 0 0 0 11.776 8.33 8.33 0 0 0 11.776 0 8.329 8.329 0 0 0 0-11.776ZM351.972 38.33a8.33 8.33 0 0 0-11.776 0 8.329 8.329 0 0 0 0 11.776 8.33 8.33 0 0 0 11.776 0 8.33 8.33 0 0 0 0-11.776ZM343.543 59.787a4.862 4.862 0 1 0-6.875 6.876 4.862 4.862 0 0 0 6.875-6.876Z"/></g><path fill="#7300FF" fill-rule="evenodd" d="M350.943 56.519c-.641-5.917-4.355-10.754-9.376-13.103a16.32 16.32 0 0 1 3.282 8.208c.977 9.015-5.53 17.115-14.544 18.1a16.359 16.359 0 0 1-8.723-1.442c3.377 4.4 8.9 6.983 14.811 6.342 9.014-.977 15.528-9.084 14.544-18.099l.006-.006Z" clip-rule="evenodd" opacity=".5"/><path fill="#FF9500" fill-rule="evenodd" d="M330 45.904a7.757 7.757 0 0 0-7.758 7.758A7.757 7.757 0 0 0 330 61.42a7.756 7.756 0 0 0 7.757-7.758A7.756 7.756 0 0 0 330 45.904Z" clip-rule="evenodd" style="mix-blend-mode:hard-light"/><path stroke="#FFB300" stroke-linecap="round" stroke-linejoin="round" stroke-width="7.256" d="M28.176 111.521v60.982H219.33"/><path stroke="#FF9500" stroke-linecap="round" stroke-linejoin="round" stroke-width="7.256" d="M28.176 111.521v21.845"/><mask id="r" width="56" height="56" x="0" y="69" maskUnits="userSpaceOnUse" style="mask-type:luminance"><path fill="#fff" d="M28.174 124.989c15.297 0 27.698-12.401 27.698-27.698s-12.4-27.697-27.698-27.697C12.877 69.594.477 81.994.477 97.29c0 15.297 12.4 27.698 27.697 27.698Z"/></mask><g mask="url(#r)"><path fill="#E62E43" d="m56.823 49.528-80.5 40.03 4.378 8.805 80.5-40.03-4.378-8.805Z"/><path fill="#FF6B1C" d="m61.2 58.332-80.5 40.031 4.378 8.805 80.5-40.03-4.378-8.806Z"/><path fill="#FF501C" d="m65.58 67.143-80.5 40.031 4.379 8.805 80.5-40.031-4.378-8.805Z"/><path fill="#FF334A" d="m69.962 75.95-80.501 40.03 4.378 8.805 80.501-40.03-4.378-8.805Z"/><path fill="#E62E43" d="M74.339 84.758-6.162 124.79l4.378 8.805 80.501-40.031-4.378-8.805Z"/><path fill="#FF5900" d="m78.716 93.567-80.501 40.031 4.378 8.805 80.501-40.031-4.378-8.805Z"/></g><path fill="#7300FF" fill-rule="evenodd" d="M55.689 94.31c-1.086-9.974-7.345-18.138-15.814-22.1a27.503 27.503 0 0 1 5.536 13.84c1.657 15.198-9.326 28.866-24.53 30.517a27.546 27.546 0 0 1-14.71-2.432c5.695 7.421 15.008 11.776 24.981 10.691 15.205-1.657 26.187-15.319 24.53-30.517h.007Z" clip-rule="evenodd" opacity=".5"/><path fill="#FF9500" fill-rule="evenodd" d="M20.367 76.408c-7.225 0-13.078 5.853-13.078 13.078 0 7.224 5.853 13.077 13.078 13.077 7.224 0 13.077-5.853 13.077-13.077 0-7.225-5.853-13.078-13.077-13.078Z" clip-rule="evenodd" style="mix-blend-mode:hard-light"/><path stroke="#FF9500" stroke-linecap="round" stroke-linejoin="round" stroke-width="7.256" d="M384.502 87.387v60.982H243.119"/><path stroke="#F70" stroke-linecap="round" stroke-linejoin="round" stroke-width="7.256" d="M384.502 87.387v15.915"/><path fill="#B759FF" d="M384.498 96.463c10.673 0 19.324-8.652 19.324-19.324 0-10.673-8.651-19.324-19.324-19.324-10.672 0-19.324 8.651-19.324 19.324 0 10.672 8.652 19.324 19.324 19.324Z"/><mask id="s" width="39" height="40" x="365" y="57" maskUnits="userSpaceOnUse" style="mask-type:luminance"><path fill="#fff" d="M384.496 96.465c10.673 0 19.324-8.652 19.324-19.324 0-10.673-8.651-19.325-19.324-19.325-10.672 0-19.324 8.652-19.324 19.325 0 10.672 8.652 19.324 19.324 19.324Z"/></mask><g fill="#7E4EFC" mask="url(#s)"><path d="m389.841 62.203-7.871-.726a4.45 4.45 0 0 0-4.84 4.023v.006a4.45 4.45 0 0 0 4.022 4.84l7.871.726a4.45 4.45 0 0 0 4.84-4.023v-.006a4.45 4.45 0 0 0-4.022-4.84ZM427.875 87.448l-45.084-4.158a4.45 4.45 0 0 0-4.84 4.022l-.001.007a4.45 4.45 0 0 0 4.023 4.84l45.084 4.158a4.45 4.45 0 0 0 4.84-4.022l.001-.007a4.45 4.45 0 0 0-4.023-4.84ZM375.67 71.82l-45.084-4.16a4.45 4.45 0 0 0-4.84 4.023l-.001.007a4.45 4.45 0 0 0 4.023 4.84l45.084 4.158a4.45 4.45 0 0 0 4.84-4.022l.001-.007a4.45 4.45 0 0 0-4.023-4.84Z"/></g><path fill="#7300FF" fill-rule="evenodd" d="M403.717 75.051c-.756-6.964-5.13-12.658-11.04-15.426a19.184 19.184 0 0 1 3.866 9.662c1.156 10.614-6.513 20.156-17.127 21.311-3.651.4-7.168-.248-10.266-1.701 3.974 5.18 10.475 8.22 17.439 7.465 10.615-1.155 18.283-10.697 17.128-21.31Z" clip-rule="evenodd" opacity=".5"/><path fill="#BB94FF" fill-rule="evenodd" d="M379.053 62.559a9.13 9.13 0 0 0-9.129 9.129 9.13 9.13 0 0 0 18.258 0c0-5.041-4.089-9.13-9.129-9.13Z" clip-rule="evenodd" style="mix-blend-mode:hard-light"/><path stroke="#FF9500" stroke-linecap="round" stroke-linejoin="round" stroke-width="7.256" d="M162.799 65.897v60.981h64.384"/><path stroke="#F70" stroke-linecap="round" stroke-linejoin="round" stroke-width="7.256" d="M162.799 65.897v13.858"/><path fill="#00C28E" fill-rule="evenodd" d="M172.296 50.07c-5.276-5.276-13.833-5.276-19.115 0-5.275 5.275-5.275 13.833 0 19.115 5.276 5.275 13.833 5.275 19.115 0 5.275-5.276 5.275-13.833 0-19.115Z" clip-rule="evenodd"/><path fill="#00ADB3" fill-rule="evenodd" d="M169.242 53.122c-3.587-3.587-9.408-3.587-12.995 0-3.587 3.587-3.587 9.408 0 12.995 3.587 3.587 9.408 3.587 12.995 0 3.587-3.587 3.587-9.409 0-12.995Z" clip-rule="evenodd"/><path fill="#00C28E" fill-rule="evenodd" d="M165.808 56.558a4.333 4.333 0 0 0-6.132 0 4.333 4.333 0 0 0 0 6.133 4.333 4.333 0 0 0 6.132 0 4.333 4.333 0 0 0 0-6.133Z" clip-rule="evenodd"/><path fill="#6031DE" fill-rule="evenodd" d="M176.174 58.157c-.527-4.87-3.587-8.85-7.72-10.786a13.485 13.485 0 0 1 2.705 6.755c.806 7.42-4.552 14.087-11.973 14.9a13.414 13.414 0 0 1-7.18-1.188 13.525 13.525 0 0 0 12.195 5.218c7.421-.806 12.779-7.478 11.973-14.9Z" clip-rule="evenodd" opacity=".5"/><path fill="#BB94FF" fill-rule="evenodd" d="M158.939 49.42a6.387 6.387 0 1 0 .002 12.774 6.387 6.387 0 0 0-.002-12.774Z" clip-rule="evenodd" style="mix-blend-mode:hard-light"/><path fill="#FF501C" d="M233.888 92.656c19.097 0 34.579-15.481 34.579-34.579 0-19.097-15.482-34.579-34.579-34.579-19.098 0-34.579 15.482-34.579 34.58 0 19.097 15.481 34.578 34.579 34.578Z"/><path fill="url(#t)" fill-rule="evenodd" d="M130.249 45.14c-11.522-11.523-30.198-11.523-41.72 0-11.523 11.522-11.523 30.198 0 41.72 11.522 11.523 30.198 11.523 41.72 0 11.523-11.522 11.523-30.198 0-41.72Z" clip-rule="evenodd"/><path fill="#00CC8B" d="M110.807 88.877a2.95 2.95 0 0 0-2.952-2.951h-3.029c-.653 0-1.18-.527-1.18-1.181s.508-1.156 1.142-1.175h1.67a4.92 4.92 0 0 0 0-9.84H94.536a4.92 4.92 0 0 0 0 9.84h3.656c.635.02 1.143.54 1.143 1.175a1.19 1.19 0 0 1-1.18 1.18H87.628a29.604 29.604 0 0 0 7.49 5.91h12.736a2.95 2.95 0 0 0 2.952-2.951v-.007Z"/><path fill="#A8E5FF" d="M126.823 51.184a2.512 2.512 0 0 0 2.514-2.514 2.512 2.512 0 0 0-2.514-2.514h-6.094a2.511 2.511 0 0 0-2.514 2.514 2.511 2.511 0 0 0 2.514 2.514h6.094ZM114.145 77.873a3.325 3.325 0 1 0 0-6.646h-8.049a3.32 3.32 0 0 0-3.321 3.326 3.315 3.315 0 0 0 3.321 3.32h8.049Z"/><path fill="#00CC8B" d="M119.611 40.784h3.79c.343 0 .673-.07.971-.197a29.614 29.614 0 0 0-7.167-3.034c-.07.228-.101.463-.101.717a2.51 2.51 0 0 0 2.513 2.514h-.006Z"/><path fill="#A8E5FF" d="M86.219 68.19a2.512 2.512 0 0 0-2.514-2.514h-3.803v.337c0 1.6.127 3.167.375 4.69h3.434a2.512 2.512 0 0 0 2.514-2.513h-.006Z"/><path fill="#00CC8B" d="M125.91 75.365a4.053 4.053 0 0 0 4.05 4.05h5.72a29.352 29.352 0 0 0 2.736-8.1h-8.456a4.053 4.053 0 0 0-4.05 4.05ZM86.221 53.18a1.17 1.17 0 0 1 1.15 1.175c0 .64-.528 1.18-1.175 1.18h-1.124a3.468 3.468 0 0 0-3.37 3.466c0 1.886 1.548 3.46 3.459 3.46h8.386a3.46 3.46 0 0 0 3.46-3.46c0-1.91-1.53-3.44-3.428-3.46h-.705c-.647 0-1.18-.526-1.18-1.18 0-.654.514-1.162 1.155-1.175h6.297a4.053 4.053 0 0 0 4.051-4.05 4.054 4.054 0 0 0-4.05-4.05H88.62a29.642 29.642 0 0 0-5.6 7.726 3.996 3.996 0 0 0 1.702.374h1.505l-.007-.006ZM123.027 63.335a3.476 3.476 0 0 0 3.479-3.48 3.48 3.48 0 0 0-3.479-3.478h-8.437a3.48 3.48 0 0 0-3.479 3.479 3.48 3.48 0 0 0 3.479 3.479h8.437Z"/><path fill="#A8E5FF" d="M137.806 58.047h-16.791a5.5 5.5 0 0 0-5.497 5.498 5.5 5.5 0 0 0 5.497 5.497h17.725c.101-.996.152-2.006.152-3.028 0-2.761-.381-5.434-1.092-7.967h.006Z"/><path fill="#7300FF" fill-rule="evenodd" d="M138.754 62.815c-1.156-10.627-7.821-19.324-16.848-23.545a29.42 29.42 0 0 1 5.903 14.747c1.765 16.194-9.941 30.757-26.136 32.516a29.399 29.399 0 0 1-15.667-2.59c6.063 7.903 15.985 12.544 26.618 11.388 16.195-1.764 27.901-16.321 26.136-32.516h-.006Z" clip-rule="evenodd" opacity=".25"/><path fill="#94DFFF" fill-rule="evenodd" d="M101.124 43.742c-7.694 0-13.934 6.24-13.934 13.935 0 7.694 6.24 13.934 13.934 13.934 7.694 0 13.934-6.24 13.934-13.934 0-7.694-6.24-13.935-13.934-13.935ZM118.811 42.756a4.438 4.438 0 1 0 0 8.876 4.438 4.438 0 0 0 0-8.876Z" clip-rule="evenodd" opacity=".25" style="mix-blend-mode:hard-light"/><path fill="#FF9500" d="M233.887 93.328c19.459 0 35.233-15.775 35.233-35.234 0-19.458-15.774-35.233-35.233-35.233-19.458 0-35.233 15.775-35.233 35.233 0 19.46 15.775 35.233 35.233 35.233Z"/><path fill="#FF501C" d="M263.14 38.46a35.083 35.083 0 0 0-17.382-13.534 35.76 35.76 0 0 1 2.8 3.618c10.843 16.157 6.539 38.046-9.618 48.889-9.649 6.475-21.343 7.548-31.506 3.916 11.503 13.116 31.221 15.98 46.088 5.993 16.157-10.843 20.461-32.732 9.618-48.888v.006Z" opacity=".5"/><path fill="#FFC919" fill-rule="evenodd" d="M224.275 32.03c-10.151 0-18.379 8.227-18.379 18.378 0 10.15 8.228 18.378 18.379 18.378 10.151 0 18.378-8.227 18.378-18.378s-8.227-18.379-18.378-18.379Z" clip-rule="evenodd" style="mix-blend-mode:hard-light"/><defs><linearGradient id="a" x1="258.242" x2="298.56" y1="58.563" y2="58.272" gradientUnits="userSpaceOnUse"><stop stop-color="#FF501C"/><stop offset=".61" stop-color="#FF501C"/></linearGradient><linearGradient id="b" x1="250.763" x2="279.483" y1="75.642" y2="103.942" gradientUnits="userSpaceOnUse"><stop stop-color="#FF501C"/><stop offset=".61" stop-color="#FF501C"/></linearGradient><linearGradient id="c" x1="233.402" x2="233.694" y1="82.426" y2="122.745" gradientUnits="userSpaceOnUse"><stop stop-color="#FF501C"/><stop offset=".61" stop-color="#FF501C"/></linearGradient><linearGradient id="d" x1="216.323" x2="188.022" y1="74.948" y2="103.668" gradientUnits="userSpaceOnUse"><stop stop-color="#FF501C"/><stop offset=".61" stop-color="#FF501C"/></linearGradient><linearGradient id="e" x1="209.538" x2="169.219" y1="57.587" y2="57.879" gradientUnits="userSpaceOnUse"><stop stop-color="#FF9500"/><stop offset=".61" stop-color="#FF9500"/></linearGradient><linearGradient id="f" x1="217.014" x2="188.294" y1="40.511" y2="12.21" gradientUnits="userSpaceOnUse"><stop stop-color="#FF9500"/><stop offset=".61" stop-color="#FF9500"/></linearGradient><linearGradient id="g" x1="234.384" x2="234.086" y1="33.723" y2="-6.595" gradientUnits="userSpaceOnUse"><stop stop-color="#FF9500"/><stop offset=".61" stop-color="#FF9500"/></linearGradient><linearGradient id="h" x1="251.454" x2="279.754" y1="41.204" y2="12.484" gradientUnits="userSpaceOnUse"><stop stop-color="#FF501C"/><stop offset=".61" stop-color="#FF501C"/></linearGradient><linearGradient id="i" x1="256.578" x2="293.716" y1="49.214" y2="33.509" gradientUnits="userSpaceOnUse"><stop stop-color="#FF501C"/><stop offset=".61" stop-color="#FF501C"/></linearGradient><linearGradient id="j" x1="256.195" x2="293.561" y1="67.847" y2="83.007" gradientUnits="userSpaceOnUse"><stop stop-color="#FF501C"/><stop offset=".61" stop-color="#FF501C"/></linearGradient><linearGradient id="k" x1="242.758" x2="258.457" y1="80.766" y2="117.897" gradientUnits="userSpaceOnUse"><stop stop-color="#FF501C"/><stop offset=".61" stop-color="#FF501C"/></linearGradient><linearGradient id="l" x1="224.119" x2="208.959" y1="80.383" y2="117.749" gradientUnits="userSpaceOnUse"><stop stop-color="#FF501C"/><stop offset=".61" stop-color="#FF501C"/></linearGradient><linearGradient id="m" x1="211.206" x2="174.069" y1="66.939" y2="82.645" gradientUnits="userSpaceOnUse"><stop stop-color="#FF9500"/><stop offset=".61" stop-color="#FF9500"/></linearGradient><linearGradient id="n" x1="211.581" x2="174.215" y1="48.308" y2="33.149" gradientUnits="userSpaceOnUse"><stop stop-color="#FF9500"/><stop offset=".61" stop-color="#FF9500"/></linearGradient><linearGradient id="o" x1="225.027" x2="209.321" y1="35.387" y2="-1.744" gradientUnits="userSpaceOnUse"><stop stop-color="#FF9500"/><stop offset=".61" stop-color="#FF9500"/></linearGradient><linearGradient id="p" x1="243.665" x2="258.818" y1="35.768" y2="-1.598" gradientUnits="userSpaceOnUse"><stop stop-color="#FF9500"/><stop offset=".61" stop-color="#FF9500"/></linearGradient><linearGradient id="t" x1="79.895" x2="138.889" y1="66" y2="66" gradientUnits="userSpaceOnUse"><stop stop-color="#05F"/><stop offset="1" stop-color="#05F"/></linearGradient></defs></svg>